<svg xmlns="http://www.w3.org/2000/svg" viewBox="0 0 750 500"><g id="freepik--background-complete--inject-4"><polygon points="464.83 73.34 476.26 102.59 469.16 102.56 463.46 84.58 464.83 73.34" style="fill:#e0e0e0"></polygon><polygon points="425.8 46.32 421.87 102.36 462.44 103.2 467 46.32 425.8 46.32" style="fill:#ebebeb"></polygon><polygon points="429.86 50.84 426.58 97.47 456.74 98.89 460.96 50.56 429.86 50.84" style="fill:#fafafa"></polygon><polygon points="436.47 57.43 434.03 90.21 450.66 90.21 453.6 57.43 436.47 57.43" style="fill:#e0e0e0"></polygon><polygon points="385.79 102.71 385.79 74.65 406.33 74.65 406.33 102.69 385.79 102.71" style="fill:#ebebeb"></polygon><path d="M397.47,74.65s4.95-36.22,3.56-36.17-4.87,33-4.87,33S396,44.2,394.71,44.34s0,28.91,0,28.91-2.24-23.34-3.44-22.78.51,24.18.51,24.18h5.69" style="fill:#e0e0e0"></path><path d="M393.73,74.65S395.45,56.6,396,57.83s0,10.75,0,10.75,4.75-23.33,6-22.53-4.87,25.32-4.87,25.32,4.64-14,5.66-12.53S399,73.45,399,73.45s5-9.29,5.32-8-2.38,9.24-2.38,9.24Z" style="fill:#ebebeb"></path><path d="M390.8,74.76s-11-21.56-9.62-20.89,8.38,14.59,8.38,14.59S384.91,55,385.93,54.61s6.12,15.1,6.12,15.1l1.14,5.05Z" style="fill:#f5f5f5"></path><polygon points="395.3 74.7 395.81 102.75 386.05 102.75 385.86 74.61 395.3 74.7" style="fill:#e0e0e0"></polygon><polygon points="385.81 77.13 395.27 77.29 406.33 77.13 406.68 74.45 385.54 74.45 385.81 77.13" style="fill:#e0e0e0"></polygon><rect x="364.99" y="101.93" width="143.83" height="7.41" style="fill:#e0e0e0"></rect><polygon points="139.56 226.26 141.63 460.24 48.95 460.24 48.95 229.45 139.56 226.26" style="fill:#f5f5f5"></polygon><polygon points="89.63 228.02 90.45 460.24 48.95 460.24 48.95 229.45 89.63 228.02" style="fill:#e0e0e0"></polygon><polygon points="136.65 229.15 136.65 261.94 92.75 261.94 92.75 230.7 136.65 229.15" style="fill:#e0e0e0"></polygon><polygon points="121.51 238.17 121.51 243.01 108.08 243.01 108.08 237.73 121.51 238.17" style="fill:#f5f5f5"></polygon><rect x="107.64" y="247.09" width="13.87" height="1.98" style="fill:#f5f5f5"></rect><polygon points="136.65 344.07 136.65 376.87 92.75 376.87 92.75 345.62 136.65 344.07" style="fill:#e0e0e0"></polygon><polygon points="121.51 353.1 121.51 357.94 108.08 357.94 108.08 352.66 121.51 353.1" style="fill:#f5f5f5"></polygon><rect x="107.64" y="362.01" width="13.87" height="1.98" style="fill:#f5f5f5"></rect><polygon points="136.65 266.12 136.65 298.92 92.75 298.92 92.75 267.67 136.65 266.12" style="fill:#e0e0e0"></polygon><polygon points="121.51 275.14 121.51 279.99 108.08 279.99 108.08 274.7 121.51 275.14" style="fill:#f5f5f5"></polygon><rect x="107.64" y="284.06" width="13.87" height="1.98" style="fill:#f5f5f5"></rect><polygon points="136.65 381.04 136.65 413.83 92.75 413.83 92.75 382.59 136.65 381.04" style="fill:#e0e0e0"></polygon><polygon points="121.51 390.06 121.51 394.9 108.08 394.9 108.08 389.62 121.51 390.06" style="fill:#f5f5f5"></polygon><rect x="107.64" y="398.98" width="13.87" height="1.98" style="fill:#f5f5f5"></rect><polygon points="137.12 418 137.12 450.8 93.22 450.8 93.22 419.55 137.12 418" style="fill:#e0e0e0"></polygon><polygon points="121.98 427.02 121.98 431.87 108.55 431.87 108.55 426.58 121.98 427.02" style="fill:#f5f5f5"></polygon><rect x="108.11" y="435.94" width="13.87" height="1.98" style="fill:#f5f5f5"></rect><rect x="93.32" y="305.39" width="43.9" height="32.8" style="fill:#e0e0e0"></rect><polygon points="121.79 320.17 121.79 324.72 109.16 324.72 109.16 319.76 121.79 320.17" style="fill:#f5f5f5"></polygon><rect x="108.75" y="328.55" width="13.04" height="1.86" style="fill:#f5f5f5"></rect><polygon points="410.14 431.69 410.14 460.28 451.95 460.28 498.06 460.28 498.06 431.69 410.14 431.69" style="fill:#f5f5f5"></polygon><polygon points="406.45 423.7 406.45 431.69 501.13 431.69 501.13 423.7 451.95 423.7 406.45 423.7" style="fill:#e0e0e0"></polygon><polygon points="453.79 460.28 498.06 460.28 498.06 431.69 501.13 431.69 501.13 423.7 451.95 423.7 451.95 430.95 453.79 460.28" style="fill:#e0e0e0"></polygon><rect x="422.44" y="436.3" width="17.83" height="4.3" style="fill:#e0e0e0"></rect><rect x="420.14" y="445.98" width="22.89" height="9.09" style="fill:#fff"></rect><polygon points="523.73 395.11 523.73 423.7 565.53 423.7 611.64 423.7 611.64 395.11 523.73 395.11" style="fill:#f5f5f5"></polygon><polygon points="520.04 387.12 520.04 395.11 614.71 395.11 614.71 387.12 565.53 387.12 520.04 387.12" style="fill:#e0e0e0"></polygon><polygon points="567.38 423.7 611.64 423.7 611.64 395.11 614.71 395.11 614.71 387.12 565.53 387.12 565.53 394.37 567.38 423.7" style="fill:#e0e0e0"></polygon><rect x="536.02" y="399.72" width="17.83" height="4.3" style="fill:#e0e0e0"></rect><rect x="533.73" y="409.4" width="22.89" height="9.09" style="fill:#fff"></rect><polygon points="519.51 431.69 519.51 460.28 561.32 460.28 607.43 460.28 607.43 431.69 519.51 431.69" style="fill:#f5f5f5"></polygon><polygon points="515.83 423.7 515.83 431.69 610.5 431.69 610.5 423.7 561.32 423.7 515.83 423.7" style="fill:#e0e0e0"></polygon><polygon points="563.17 460.28 607.43 460.28 607.43 431.69 610.5 431.69 610.5 423.7 561.32 423.7 561.32 430.95 563.17 460.28" style="fill:#e0e0e0"></polygon><rect x="531.81" y="436.3" width="17.83" height="4.3" style="fill:#e0e0e0"></rect><rect x="529.52" y="445.98" width="22.89" height="9.09" style="fill:#fff"></rect><polygon points="606.19 226.14 604.12 460.11 696.79 460.11 696.79 229.33 606.19 226.14" style="fill:#f5f5f5"></polygon><polygon points="656.12 227.9 655.3 460.11 696.79 460.11 696.79 229.33 656.12 227.9" style="fill:#e0e0e0"></polygon><polygon points="609.1 229.03 609.1 261.82 653 261.82 653 230.58 609.1 229.03" style="fill:#e0e0e0"></polygon><polygon points="624.24 238.05 624.24 242.89 637.67 242.89 637.67 237.61 624.24 238.05" style="fill:#f5f5f5"></polygon><rect x="624.24" y="246.97" width="13.87" height="1.98" style="fill:#f5f5f5"></rect><polygon points="609.1 343.95 609.1 376.75 653 376.75 653 345.5 609.1 343.95" style="fill:#e0e0e0"></polygon><polygon points="624.24 352.98 624.24 357.82 637.67 357.82 637.67 352.54 624.24 352.98" style="fill:#f5f5f5"></polygon><rect x="624.24" y="361.89" width="13.87" height="1.98" style="fill:#f5f5f5"></rect><polygon points="609.1 266 609.1 298.8 653 298.8 653 267.55 609.1 266" style="fill:#e0e0e0"></polygon><polygon points="624.24 275.02 624.24 279.87 637.67 279.87 637.67 274.58 624.24 275.02" style="fill:#f5f5f5"></polygon><rect x="624.24" y="283.94" width="13.87" height="1.98" style="fill:#f5f5f5"></rect><polygon points="609.1 380.92 609.1 413.71 653 413.71 653 382.47 609.1 380.92" style="fill:#e0e0e0"></polygon><polygon points="624.24 389.94 624.24 394.78 637.67 394.78 637.67 389.5 624.24 389.94" style="fill:#f5f5f5"></polygon><rect x="624.24" y="398.86" width="13.87" height="1.98" style="fill:#f5f5f5"></rect><polygon points="608.63 417.88 608.63 450.68 652.53 450.68 652.53 419.43 608.63 417.88" style="fill:#e0e0e0"></polygon><polygon points="623.76 426.9 623.76 431.75 637.2 431.75 637.2 426.46 623.76 426.9" style="fill:#f5f5f5"></polygon><rect x="623.76" y="435.82" width="13.87" height="1.98" style="fill:#f5f5f5"></rect><rect x="608.53" y="305.27" width="43.9" height="32.8" style="fill:#e0e0e0"></rect><polygon points="623.96 320.05 623.96 324.6 636.59 324.6 636.59 319.63 623.96 320.05" style="fill:#f5f5f5"></polygon><rect x="623.96" y="328.43" width="13.04" height="1.86" style="fill:#f5f5f5"></rect></g><g id="freepik--Floor--inject-4"><path d="M697.42,460.25c0,.14-148.3.26-331.19.26S35,460.39,35,460.25,183.27,460,366.23,460,697.42,460.1,697.42,460.25Z" style="fill:#263238"></path></g><g id="freepik--Folder--inject-4"><path d="M232.28,191.4l7.06,120.39a8.12,8.12,0,0,0,8.09,7.65l216.7.66a8.12,8.12,0,0,0,8.15-8.1l.29-93.74a8.13,8.13,0,0,0-8.16-8.15l-133.27.45a8.11,8.11,0,0,1-5.75-2.36L302.3,185.32a8.16,8.16,0,0,0-5.7-2.36l-56.18-.17A8.14,8.14,0,0,0,232.28,191.4Z" style="fill:#007355"></path><path d="M232.28,191.4l7.06,120.39a8.12,8.12,0,0,0,8.09,7.65l216.7.66a8.12,8.12,0,0,0,8.15-8.1l.29-93.74a8.13,8.13,0,0,0-8.16-8.15l-133.27.45a8.11,8.11,0,0,1-5.75-2.36L302.3,185.32a8.16,8.16,0,0,0-5.7-2.36l-56.18-.17A8.14,8.14,0,0,0,232.28,191.4Z" style="opacity:0.30000000000000004"></path><rect x="248.97" y="165.78" width="117.59" height="94.01" transform="translate(-48 328.67) rotate(-52.7)" style="fill:#fff"></rect><path d="M306,137.53l-.33.46-1,1.31c-.88,1.17-2.17,2.87-3.84,5.1L286.3,163.58l-51.37,67.63-.05-.32,74.8,56.94h0l-.37.05,71.29-93.51.05.3-54.19-41.42-15.12-11.59-4-3.06L306,137.53l1.36,1,4,3L326.48,153l54.44,41.32.17.13-.13.18L309.74,288.2l-.16.21-.21-.16h0l-74.76-57-.18-.14.14-.19,51.65-67.61,14.6-19.07,3.86-5,1-1.28Z" style="fill:#263238"></path><rect x="253.05" y="171.76" width="109.33" height="82.18" transform="translate(-48.07 328.65) rotate(-52.7)" style="fill:#263238"></rect><polygon points="307.28 282.26 289.78 220.93 329.54 221.48 325.67 198.36 373.53 195.29 307.28 282.26" style="fill:#455a64"></polygon><circle cx="300.01" cy="196.15" r="8.61" transform="translate(-23.76 42.35) rotate(-7.77)" style="fill:#455a64"></circle><rect x="335.45" y="123.4" width="130.85" height="163.67" transform="translate(179.34 597.34) rotate(-87.64)" style="fill:#fff"></rect><path d="M485.33,143.23l-.78,0-2.28-.08-8.87-.34-33.46-1.31-118.15-4.75.24-.22c-1.59,38.91-3.42,83.52-5.35,130.73h0l-.25-.27L480,273.75l-.22.21c1.67-39.4,3.05-72.06,4-94.87.5-11.42.89-20.38,1.15-26.48.14-3.05.24-5.39.31-7s.12-2.4.12-2.4,0,.79-.07,2.36-.15,3.9-.26,6.93c-.24,6.1-.59,15-1,26.44-.91,22.85-2.22,55.56-3.8,95v.21H480L316.41,267.5h-.26v-.26h0c1.95-47.21,3.8-91.82,5.41-130.73v-.23h.23l118.29,5,33.4,1.44,8.82.39,2.26.1Z" style="fill:#263238"></path><rect x="343.58" y="129.14" width="114.38" height="152.17" transform="translate(179.24 597.23) rotate(-87.64)" style="fill:#455a64"></rect><polygon points="322.4 259.24 378.42 190.39 409.49 236.19 432.78 213.35 474.44 265.5 322.4 259.24" style="fill:#263238"></polygon><circle cx="413.67" cy="183.12" r="11.98" transform="translate(144.46 546.7) rotate(-77.36)" style="fill:#263238"></circle><polygon points="493.25 199.43 271.73 229.93 295.19 392.17 514.89 361.22 493.25 199.43" style="fill:#ebebeb"></polygon><polygon points="494.1 179.19 275.14 224.57 309.5 384.86 526.61 339.15 494.1 179.19" style="fill:#e0e0e0"></polygon><polygon points="474.76 161.2 263.83 235.42 319.28 389.69 528.35 315.39 474.76 161.2" style="fill:#fff"></polygon><path d="M474.76,161.2c.58,1.66,21.21,60.75,53.79,154.12l.07.2-.2.07-209,74.34-.25.09-.08-.25-.41-1.12c-19.73-54.93-38.44-107-55-153.15l-.08-.23.22-.07,211-74L263.91,235.64l.14-.3,55.07,153.13.41,1.13-.34-.16,209.09-74.25-.13.27C495.81,222,475.34,162.86,474.76,161.2Z" style="fill:#263238"></path><path d="M480.71,309.17c-.41.15-10.54-26.16-22.63-58.76s-21.58-59.15-21.17-59.3,10.53,26.15,22.63,58.76S481.11,309,480.71,309.17Z" style="fill:#263238"></path><path d="M462.69,317.4c-.4.15-10.54-26.16-22.63-58.75s-21.57-59.16-21.17-59.31,10.54,26.16,22.64,58.76S463.1,317.25,462.69,317.4Z" style="fill:#263238"></path><path d="M406.76,340.83c-.4.15-10.54-26.16-22.63-58.76s-21.57-59.15-21.17-59.3,10.54,26.15,22.63,58.76S407.16,340.68,406.76,340.83Z" style="fill:#263238"></path><path d="M424.59,333.65c-.41.15-10.54-26.16-22.63-58.76s-21.58-59.15-21.17-59.3,10.53,26.15,22.63,58.76S425,333.5,424.59,333.65Z" style="fill:#263238"></path><path d="M442.41,326.47c-.4.15-10.53-26.16-22.63-58.75s-21.57-59.16-21.17-59.31,10.54,26.16,22.64,58.76S442.82,326.32,442.41,326.47Z" style="fill:#263238"></path><path d="M386.11,346.77c-.4.15-10.54-26.16-22.63-58.76s-21.57-59.15-21.17-59.3,10.54,26.15,22.64,58.76S386.52,346.62,386.11,346.77Z" style="fill:#263238"></path><path d="M366.36,354c-.4.15-10.53-26.16-22.63-58.75S322.16,236.1,322.56,236s10.54,26.16,22.64,58.76S366.77,353.86,366.36,354Z" style="fill:#263238"></path><path d="M346.62,361.25c-.41.15-10.54-26.16-22.64-58.75s-21.57-59.16-21.16-59.31,10.53,26.16,22.63,58.76S347,361.1,346.62,361.25Z" style="fill:#263238"></path><path d="M227.85,257.3l17.63,147.59a5.23,5.23,0,0,0,5.17,4.61l230.74.7a5.22,5.22,0,0,0,5.23-4.8l12.07-147.5a5.24,5.24,0,0,0-5.2-5.66l-260.43-.79A5.23,5.23,0,0,0,227.85,257.3Z" style="fill:#007355"></path></g><g id="freepik--character-2--inject-4"><polygon points="510.16 216.14 502.38 221.71 506.92 244.01 517.14 234.89 510.16 216.14" style="fill:#bf7a62"></polygon><path d="M511.93,383.86l32.35-15.72,41.5,5a13.53,13.53,0,0,1,5.21,8.61,4.39,4.39,0,0,1-.47,3.27c-.93,1.3-2.84,1.46-4.39,1.08s-3-1.19-4.59-1.38c-3.09-.36-5.94,1.61-8.26,3.68s-4.63,4.43-7.66,5.13a11.79,11.79,0,0,1-7.9-1.48c-2.42-1.26-4.58-3-7-4.35a23.48,23.48,0,0,0-14.61-3.25c-4,.53-7.8,2.29-11.82,2.93s-10.23-.07-12.41-3.5" style="fill:#455a64"></path><path d="M589.06,448.05s-26.5-90.35-27-93.24c-.46-2.61,3.67-65.91,5.52-82.33l-29.19.24V273l-13.87.34L530.72,453l17.95,1.38-.12-59.28C559.87,423.73,573,455.61,573,455.61Z" style="fill:#d89377"></path><path d="M536.72,350.67s-.06.7-.12,2a36.72,36.72,0,0,0,.08,5.35,48.12,48.12,0,0,0,1.31,7.83,77.67,77.67,0,0,0,3.16,9.21c2.46,6.48,4.66,12.37,6.22,16.63.74,2.08,1.36,3.79,1.82,5.07a14.11,14.11,0,0,1,.6,1.89,13.41,13.41,0,0,1-.81-1.81c-.5-1.27-1.18-3-2-5-1.66-4.23-3.92-10.09-6.38-16.58-.61-1.62-1.21-3.21-1.78-4.74a42.71,42.71,0,0,1-1.36-4.54,46,46,0,0,1-1.2-7.93,33.09,33.09,0,0,1,.1-5.4c.07-.64.15-1.12.22-1.45A1.56,1.56,0,0,1,536.72,350.67Z" style="fill:#bf7a62"></path><path d="M548.59,416.66c0-.55.41-20.11.41-20.11s-6.5-18.15-6.67-17.6S548.59,416.66,548.59,416.66Z" style="fill:#bf7a62"></path><path d="M529.71,452.94l0-2,19,.38-.1,6.66-1.17.06c-5.23.19-26.62.63-30.1-.49C513.55,456.27,529.71,452.94,529.71,452.94Z" style="fill:#007355"></path><g style="opacity:0.30000000000000004"><path d="M541.83,457.69a6.58,6.58,0,0,1,2.49-4,6.36,6.36,0,0,1,4.45-1.29l-.09,5.29Z" style="fill:#fff"></path></g><path d="M521.81,454.85s-5.68,1.52-5,2.47,22.32,1.31,31.87.64l0-.42-25.23-.22S522.91,454.91,521.81,454.85Z" style="fill:#fff;opacity:0.30000000000000004"></path><path d="M549,457.53a1.39,1.39,0,0,1-.33,0l-.93,0-3.45.09c-2.91.05-6.93.08-11.37,0s-8.46-.23-11.37-.38l-3.44-.2-.93-.07-.33,0h.33l.93,0,3.45.13c2.91.11,6.92.24,11.36.31s8.46.08,11.37.07l3.45,0h.93Z" style="fill:#263238"></path><path d="M523.44,457.61a7.5,7.5,0,0,0-.62-1.65,7.79,7.79,0,0,0-1.15-1.34,2.5,2.5,0,0,1,1.35,1.22A2.6,2.6,0,0,1,523.44,457.61Z" style="fill:#263238"></path><path d="M529.08,454.87c-.06,0-.32-.3-.59-.74a2.06,2.06,0,0,1-.39-.85c.06,0,.32.29.59.73A2.07,2.07,0,0,1,529.08,454.87Z" style="fill:#263238"></path><path d="M530.62,454.09s-.33-.16-.66-.46-.54-.58-.5-.63.34.16.66.46S530.67,454,530.62,454.09Z" style="fill:#263238"></path><path d="M531.63,452.32a2.33,2.33,0,0,1-1,.1c-.54,0-1-.05-1-.12a2.32,2.32,0,0,1,1-.11A2.19,2.19,0,0,1,531.63,452.32Z" style="fill:#263238"></path><path d="M532,451.06a2.79,2.79,0,0,1-2.24.13,5.69,5.69,0,0,1,1.12-.06A6.68,6.68,0,0,1,532,451.06Z" style="fill:#263238"></path><path d="M528.46,453.21a3.8,3.8,0,0,1-1.21,0,7.09,7.09,0,0,1-1.3-.31,3.78,3.78,0,0,1-.73-.32.69.69,0,0,1-.3-.38.51.51,0,0,1,.2-.49,2.24,2.24,0,0,1,2.75.71,2.27,2.27,0,0,1,.38.81c0,.21,0,.33,0,.33a3.28,3.28,0,0,0-.53-1,2.27,2.27,0,0,0-1-.7,1.87,1.87,0,0,0-1.45.08c-.2.14-.13.36.09.5a3.69,3.69,0,0,0,.67.3,8.07,8.07,0,0,0,1.25.35C528,453.16,528.46,453.17,528.46,453.21Z" style="fill:#263238"></path><path d="M528.15,453.26a1.14,1.14,0,0,1-.13-.85,2,2,0,0,1,.35-.88,1.21,1.21,0,0,1,1-.6.49.49,0,0,1,.37.57,1.46,1.46,0,0,1-.22.54,3.16,3.16,0,0,1-.59.72c-.38.37-.69.51-.7.48s.25-.21.59-.59a4.48,4.48,0,0,0,.52-.72c.17-.26.29-.72,0-.78s-.62.27-.81.51a1.94,1.94,0,0,0-.36.78A4.27,4.27,0,0,0,528.15,453.26Z" style="fill:#263238"></path><path d="M548.67,452.34s-.54-.06-1.4,0a6,6,0,0,0-3.07,1.2,6.16,6.16,0,0,0-2,2.66c-.3.81-.34,1.36-.38,1.35a1.12,1.12,0,0,1,0-.38,4.39,4.39,0,0,1,.22-1,5.76,5.76,0,0,1,2-2.79,5.86,5.86,0,0,1,3.2-1.19,5.11,5.11,0,0,1,1,.05A1.23,1.23,0,0,1,548.67,452.34Z" style="fill:#263238"></path><path d="M539.48,455.8a10.89,10.89,0,0,1-2.77.23,10.74,10.74,0,0,1-2.77-.27c0-.07,1.24,0,2.77,0S539.47,455.73,539.48,455.8Z" style="fill:#263238"></path><path d="M543.19,455.86c0,.05-.11.26-.24.54s-.2.53-.27.53-.09-.3.06-.63S543.15,455.81,543.19,455.86Z" style="fill:#263238"></path><path d="M544.62,454.14c0,.05-.08.24-.28.44s-.4.31-.44.27.08-.24.28-.44S544.57,454.1,544.62,454.14Z" style="fill:#263238"></path><path d="M546.63,453.38c0,.07-.26.06-.54.15s-.48.24-.53.2.11-.31.46-.42S546.66,453.32,546.63,453.38Z" style="fill:#263238"></path><path d="M548.07,453c0,.06-.09.16-.25.21s-.3.06-.33,0,.09-.15.25-.21S548,453,548.07,453Z" style="fill:#263238"></path><path d="M573,456l-.86-1.83,17.2-8.15,2.9,6-1,.58c-4.6,2.51-23.55,12.44-27.16,13C560,466.22,573,456,573,456Z" style="fill:#007355"></path><g style="opacity:0.30000000000000004"><path d="M586,454.87a6.57,6.57,0,0,1,.44-4.69,6.42,6.42,0,0,1,3.41-3.14l2.28,4.78Z" style="fill:#fff"></path></g><path d="M566.77,461.26s-4.39,3.9-3.36,4.43,20.56-8.78,28.82-13.64l-.21-.37-22.69,11.06S567.79,460.83,566.77,461.26Z" style="fill:#fff;opacity:0.30000000000000004"></path><path d="M592.28,451.54a1.53,1.53,0,0,1-.28.18l-.82.45-3,1.62c-2.58,1.34-6.17,3.16-10.18,5.07s-7.67,3.57-10.34,4.73L564.45,465l-.87.35-.31.11a1.71,1.71,0,0,1,.29-.15l.85-.39,3.14-1.42c2.65-1.2,6.3-2.88,10.31-4.79s7.6-3.71,10.2-5l3.08-1.55.84-.41A2.72,2.72,0,0,1,592.28,451.54Z" style="fill:#263238"></path><path d="M569.46,463a6.76,6.76,0,0,0-1.28-1.21,8,8,0,0,0-1.63-.69,2.6,2.6,0,0,1,1.75.5A2.44,2.44,0,0,1,569.46,463Z" style="fill:#263238"></path><path d="M573.29,458a2.11,2.11,0,0,1-.85-.4c-.44-.27-.77-.54-.73-.59s.41.12.85.39S573.32,458,573.29,458Z" style="fill:#263238"></path><path d="M574.32,456.65c0,.06-.37,0-.79-.12s-.75-.27-.73-.33.37,0,.8.11S574.34,456.58,574.32,456.65Z" style="fill:#263238"></path><path d="M574.43,454.61c0,.06-.35.3-.84.54a2.44,2.44,0,0,1-.94.34c0-.06.35-.3.84-.54A2.44,2.44,0,0,1,574.43,454.61Z" style="fill:#263238"></path><path d="M574.19,453.33s-.3.45-.86.77a1.91,1.91,0,0,1-1.09.35,5.93,5.93,0,0,1,1-.55C573.75,453.6,574.14,453.28,574.19,453.33Z" style="fill:#263238"></path><path d="M572,456.82a3.35,3.35,0,0,1-1.1.52,7.38,7.38,0,0,1-1.3.3,3,3,0,0,1-.8,0,.63.63,0,0,1-.43-.21.47.47,0,0,1,0-.52,2.26,2.26,0,0,1,2.78-.6,2.16,2.16,0,0,1,.7.57c.14.16.19.27.17.28a3.31,3.31,0,0,0-.94-.7,2.21,2.21,0,0,0-1.23-.16,1.88,1.88,0,0,0-1.27.71c-.11.22.05.39.3.41a3.77,3.77,0,0,0,.75,0,9,9,0,0,0,1.27-.24C571.56,457,572,456.79,572,456.82Z" style="fill:#263238"></path><path d="M571.74,457s-.31-.18-.49-.7a1.92,1.92,0,0,1-.08-.95,1.19,1.19,0,0,1,.64-1,.48.48,0,0,1,.58.34,1.19,1.19,0,0,1,.05.58,3.6,3.6,0,0,1-.2.92,1.64,1.64,0,0,1-.42.74s.13-.3.26-.79a4.23,4.23,0,0,0,.15-.88c0-.31-.06-.77-.36-.69s-.43.51-.5.81a2,2,0,0,0,0,.86A3.74,3.74,0,0,0,571.74,457Z" style="fill:#263238"></path><path d="M589.7,447s-.51.19-1.24.65a6.11,6.11,0,0,0-2.22,2.45,6.19,6.19,0,0,0-.56,3.26c.09.85.3,1.36.26,1.37a1,1,0,0,1-.17-.34,6.14,6.14,0,0,1-.25-1,5.75,5.75,0,0,1,3.8-6.3A1.28,1.28,0,0,1,589.7,447Z" style="fill:#263238"></path><path d="M583,454.23a10.5,10.5,0,0,1-2.38,1.44,10.37,10.37,0,0,1-2.59,1c0-.06,1.12-.52,2.49-1.2S583,454.17,583,454.23Z" style="fill:#263238"></path><path d="M586.36,452.63c.06,0,0,.28,0,.59s.06.57,0,.59-.21-.23-.22-.59S586.3,452.6,586.36,452.63Z" style="fill:#263238"></path><path d="M586.87,450.45c.06,0,0,.25,0,.52s-.22.46-.28.44,0-.25.06-.52S586.81,450.43,586.87,450.45Z" style="fill:#263238"></path><path d="M588.34,448.87c0,.07-.21.17-.42.38s-.33.43-.39.41,0-.32.23-.57S588.33,448.81,588.34,448.87Z" style="fill:#263238"></path><path d="M589.46,447.92s0,.18-.12.3-.25.19-.29.14,0-.17.12-.3S589.42,447.88,589.46,447.92Z" style="fill:#263238"></path><path d="M566.8,267.39h0c-8-13.8-10-12.19-7.3-20.23L567.3,221,564,204.6a18,18,0,0,0-13.82-5.06l-16.28,1.12s-8-1.75-19.82,9.71L505.94,218l10.29,19.53.52,8.86,7.42,24.23-2,10.69c-.86,8.13-11.79,101.37-10.31,102.85s24.34-9.87,29.86-5.21,16.63,7.52,22.9,5.51,15.67-14.48,25.16-6.07C589.8,378.39,586.7,295.66,566.8,267.39Z" style="fill:#263238"></path><path d="M557.84,200.67s17,4.51,14.45,16.62c-1.23,6-9.36,18.38-9.36,18.38l-19.22-9.09Z" style="fill:#263238"></path><path d="M523.25,275.59a17.7,17.7,0,0,1,12.1-4.3,13.26,13.26,0,0,1,6.36,1.89,12.3,12.3,0,0,1,5,5.75,9.46,9.46,0,0,1,.7,4.11,10,10,0,0,1-1.25,4.16c-1.37,2.63-3.53,4.82-5,7.5s-1.56,5.75-1.35,8.61.63,5.73,0,8.41a11.43,11.43,0,0,1-1.46,3.68,6.94,6.94,0,0,1-2.69,2.61,5.73,5.73,0,0,1-3.46.59,8,8,0,0,1-3-1.15,23.24,23.24,0,0,1-4.13-3.59,38.45,38.45,0,0,0-3.08-2.7,17.54,17.54,0,0,0-2.14-1.46c-.51-.3-.8-.43-.79-.45s.08,0,.22.07.36.15.62.28a16.31,16.31,0,0,1,2.21,1.39,38.31,38.31,0,0,1,3.16,2.66,23.78,23.78,0,0,0,4.12,3.49,7.72,7.72,0,0,0,2.88,1.06,5.33,5.33,0,0,0,3.2-.57,6.51,6.51,0,0,0,2.5-2.47,11,11,0,0,0,1.38-3.54c.61-2.57.17-5.38,0-8.27a24.85,24.85,0,0,1,0-4.48,11.93,11.93,0,0,1,1.38-4.42c1.49-2.77,3.64-4.94,5-7.48a9.59,9.59,0,0,0,1.21-4,9,9,0,0,0-.65-3.9,11.81,11.81,0,0,0-4.75-5.56,12.78,12.78,0,0,0-6.15-1.89,16.5,16.5,0,0,0-9.11,2.08,24.28,24.28,0,0,0-2.21,1.35l-.56.39C523.33,275.56,523.26,275.6,523.25,275.59Z" style="fill:#fafafa"></path><path d="M587.8,353.13l-.26.07-.78.13c-.69.11-1.7.27-3,.44a67.94,67.94,0,0,1-11.16.76,34.06,34.06,0,0,1-7.67-1,25.44,25.44,0,0,1-8.12-3.61,17.84,17.84,0,0,1-6.35-7.44,15.78,15.78,0,0,1-.85-10.44,12.33,12.33,0,0,1,2.59-4.74,31.4,31.4,0,0,1,3.89-3.46,22.22,22.22,0,0,0,3.59-3.37,10.11,10.11,0,0,0,1.94-4.21c.64-3,.34-6,.48-8.78A15.46,15.46,0,0,1,564,300a15.18,15.18,0,0,1,4.26-4.75,15,15,0,0,1,4.29-2.2,13.14,13.14,0,0,1,3-.6l.79,0h.27a16.5,16.5,0,0,0-4,.81,15,15,0,0,0-4.18,2.24,14.63,14.63,0,0,0-5.94,12c-.12,2.75.21,5.75-.44,8.87a10.41,10.41,0,0,1-2,4.41,22.33,22.33,0,0,1-3.66,3.47,30.83,30.83,0,0,0-3.83,3.41,11.92,11.92,0,0,0-2.47,4.53,15.27,15.27,0,0,0,.82,10.09,17.28,17.28,0,0,0,6.16,7.26,25.12,25.12,0,0,0,7.95,3.58,34.38,34.38,0,0,0,7.57,1.09,75.24,75.24,0,0,0,11.12-.59l3-.34.78-.09Z" style="fill:#fafafa"></path><path d="M540.13,378.13a1.86,1.86,0,0,1,.35-.25,4.57,4.57,0,0,0,1-.68c.35-.35.21-1,0-1.71a14,14,0,0,0-1.1-2.25c-.91-1.65-2-3.61-3.3-5.71a32.19,32.19,0,0,0-5-6.25,18.46,18.46,0,0,0-6.73-4.18,13.29,13.29,0,0,0-6.4-.61,9.38,9.38,0,0,0-4,1.71c-.83.63-1.22,1.07-1.26,1a1.6,1.6,0,0,1,.26-.34,8.24,8.24,0,0,1,.88-.85,9,9,0,0,1,4.05-1.91,13.31,13.31,0,0,1,6.62.51,18.59,18.59,0,0,1,6.94,4.26,31.26,31.26,0,0,1,5.05,6.38c1.31,2.12,2.34,4.12,3.22,5.78a13.62,13.62,0,0,1,1,2.34,4.69,4.69,0,0,1,.2,1.06,1.15,1.15,0,0,1-.31.88,3.76,3.76,0,0,1-1.06.63C540.28,378.09,540.14,378.15,540.13,378.13Z" style="fill:#fafafa"></path><path d="M562,260.56s-.12.24-.48.52a4.39,4.39,0,0,1-1.77.78,5.27,5.27,0,0,1-2.86-.24,6.11,6.11,0,0,1-2.76-2.18,8.94,8.94,0,0,1-1.46-6.07,7.21,7.21,0,0,1,.56-2.53c.09,0-.13,1-.19,2.55a9.23,9.23,0,0,0,1.51,5.74,5.9,5.9,0,0,0,2.51,2,5.22,5.22,0,0,0,2.63.33A6.2,6.2,0,0,0,562,260.56Z" style="fill:#fafafa"></path><path d="M563.45,231.8s-.13,0-.39.09a6.35,6.35,0,0,1-1.14,0,7.43,7.43,0,0,1-3.9-1.47,7,7,0,0,1-1.93-2.19,7.18,7.18,0,0,1-.9-3.24,7.41,7.41,0,0,1,.75-3.64,14,14,0,0,1,2.42-3.12,6.93,6.93,0,0,0,1.08-1.56,3,3,0,0,0,.29-1.72,10.8,10.8,0,0,0-1.46-3.21,5.4,5.4,0,0,1,.47-6,5.19,5.19,0,0,1,3.69-1.88,4.47,4.47,0,0,1,1.14.07,1.06,1.06,0,0,1,.38.11c0,.06-.54-.09-1.5,0A5.12,5.12,0,0,0,559,206a5,5,0,0,0-.34,5.56,10.85,10.85,0,0,1,1.55,3.36,3.59,3.59,0,0,1-.33,2,7.29,7.29,0,0,1-1.16,1.68,14.71,14.71,0,0,0-2.36,3,7.2,7.2,0,0,0-.72,3.39,6.75,6.75,0,0,0,2.57,5.16,7.73,7.73,0,0,0,3.7,1.56C562.9,231.83,563.45,231.75,563.45,231.8Z" style="fill:#fafafa"></path><path d="M517.56,241.42a11.1,11.1,0,0,0,1.61.08,6.32,6.32,0,0,0,3.93-1.63,5.91,5.91,0,0,0,1.65-5.82,6,6,0,0,0-2-3.12,13.59,13.59,0,0,1-2.94-3.05,6.88,6.88,0,0,1-.67-4.21c.15-1.37.47-2.64.68-3.85a11.62,11.62,0,0,0,.21-3.43,5.17,5.17,0,0,0-1.09-2.71,5.87,5.87,0,0,0-3.65-2.13,10.82,10.82,0,0,0-1.61-.06s.13-.05.41-.11a5,5,0,0,1,1.22,0,5.93,5.93,0,0,1,3.92,2.1,5.48,5.48,0,0,1,1.23,2.88,11.73,11.73,0,0,1-.17,3.57c-.2,1.24-.51,2.5-.64,3.82a6.42,6.42,0,0,0,.61,3.9,13.83,13.83,0,0,0,2.84,2.93,6.56,6.56,0,0,1,2.09,3.38,6.27,6.27,0,0,1-1.87,6.21,6.36,6.36,0,0,1-4.17,1.56,5,5,0,0,1-1.22-.13C517.69,241.49,517.55,241.44,517.56,241.42Z" style="fill:#fafafa"></path><path d="M542.21,150.5a12.2,12.2,0,0,1,14.56,11.2c.12,1.91-.12,4.12,1.23,5.48,1,1,2.42,1.16,3.61,1.81a5.51,5.51,0,0,1,2.44,6.6c-.46,1.19-1.34,2.2-1.79,3.4-.66,1.77-1.21,3.8-.67,5.61,2.78,9.5-4,10.66-7.54,11.3-5.06.89-10.19-.72-10.71-6-.17-1.71-3.22-1.52-4.92-1.3-2,.27-3.57,2-5.07,3.39a17.3,17.3,0,0,1-8.3,4.7,9.84,9.84,0,0,1-8.94-2.42c-2.24-2.31-2.79-6.28-.82-8.82A8.76,8.76,0,0,1,512,172.11c1.23-1.59,3-2.77,3.89-4.58.74-1.52,1.54-5,2.12-6.61.82-2.27,3.62-6.16,5.79-7.22" style="fill:#455a64"></path><path d="M551.2,202.38l-18.78.27c-.32-2.17-.95-10.6-.95-10.6s-7.87-.48-8.7-8.22-1.16-25.68-1.16-25.68h0A27.08,27.08,0,0,1,549,159l1.23.77Z" style="fill:#d89377"></path><path d="M530.84,178.78a5,5,0,0,0-1.76-.21c-.28,0-.51,0-.54-.19a1.49,1.49,0,0,1,.12-.82l.64-2.25c.88-3.2,1.46-5.83,1.29-5.87s-1,2.51-1.88,5.71c-.2.78-.4,1.53-.59,2.26a1.81,1.81,0,0,0,0,1.18.74.74,0,0,0,.52.4,2,2,0,0,0,.48,0A5.55,5.55,0,0,0,530.84,178.78Z" style="fill:#263238"></path><path d="M531.44,191.94a18.17,18.17,0,0,0,9.84-3.83s-1.86,5.81-9.67,5.84Z" style="fill:#bf7a62"></path><path d="M536.68,170.68a1,1,0,0,1-1,1,.94.94,0,0,1-1-.91,1,1,0,0,1,1-1A.94.94,0,0,1,536.68,170.68Z" style="fill:#263238"></path><path d="M538.29,169.62c-.12.12-.85-.44-1.91-.46s-1.84.49-2,.36.08-.29.42-.53a2.74,2.74,0,0,1,1.57-.45,2.56,2.56,0,0,1,1.52.53C538.25,169.33,538.35,169.56,538.29,169.62Z" style="fill:#263238"></path><path d="M525.85,170.65a1,1,0,0,1-1,1,.93.93,0,0,1-1-.9,1,1,0,0,1,1-1A1,1,0,0,1,525.85,170.65Z" style="fill:#263238"></path><path d="M527.25,169.78c-.12.12-.85-.44-1.91-.46s-1.84.49-2,.36.08-.29.42-.53a2.74,2.74,0,0,1,1.57-.44,2.56,2.56,0,0,1,1.52.52C527.21,169.49,527.32,169.72,527.25,169.78Z" style="fill:#263238"></path><path d="M532.62,181.5a2.1,2.1,0,0,1-.17-.78.71.71,0,0,1,.42-.64c.18-.06.4,0,.56-.13s.22-.46.35-.7a.86.86,0,0,1,.93-.38,1.94,1.94,0,0,1,.9.56,1.68,1.68,0,0,1,.56,1.08,1.29,1.29,0,0,1-.58,1,2.6,2.6,0,0,1-1.15.4,5.82,5.82,0,0,1-1.32.05,1,1,0,0,1-.37-.08.32.32,0,0,1-.18-.31" style="fill:#bf7a62"></path><path d="M531.85,181.66a5,5,0,0,0,4-3" style="fill:#bf7a62"></path><path d="M535.88,178.66a3.83,3.83,0,0,1-4,3,17.94,17.94,0,0,0,2.26-1.17C535.24,179.67,535.74,178.59,535.88,178.66Z" style="fill:#263238"></path><path d="M523.42,166.92a4.53,4.53,0,0,1,2.9-.33" style="fill:#bf7a62"></path><path d="M526.32,166.59c-.08.29-.71.36-1.42.44s-1.34.14-1.48-.11.43-.82,1.37-.92S526.4,166.32,526.32,166.59Z" style="fill:#263238"></path><path d="M534.31,167a5.54,5.54,0,0,1,4.1.23" style="fill:#bf7a62"></path><path d="M538.41,167.22c-.14.26-1,.06-2.06,0s-1.93,0-2-.24.8-.88,2.1-.8S538.55,167,538.41,167.22Z" style="fill:#263238"></path><path d="M538.61,150.35a6.21,6.21,0,0,0-4.44-2.13,14.63,14.63,0,0,0-13.31,6c-1.71,2.46-2.57,5.89-1,8.42a5.24,5.24,0,0,0,9.45-1.32,4.38,4.38,0,1,0,8.75-.39,7.85,7.85,0,0,0,2.78,4c1.39.87,3.58.66,4.3-.82.88,1,2.11,2.11,3.43,1.78a2.67,2.67,0,0,0,1.79-2.68,6.84,6.84,0,0,0-1.14-3.25c-2.56-4.46-6.34-8.56-11.31-9.91" style="fill:#455a64"></path><path d="M544.57,160.93a14,14,0,0,1,.11,13.51,23,23,0,0,0-2.13,3.93,3.7,3.7,0,0,0,.91,4.08c.73.55,1.85.83,2,1.72a2.48,2.48,0,0,1-.27,1.32,8.89,8.89,0,0,0-.24,5.63c.36,1.22.42,2.73,3.33,4,1.44.65,2.23,1.75,5.36.95,5.48-1.41,3.54-13.66,3-19.29s-3.14-15.68-6.3-20.37" style="fill:#455a64"></path><path d="M532.07,199.34s-5.68,21.21-2.06,19.11,21.19-16.07,21.19-16.07l-8.88-6.7Z" style="fill:#d89377"></path><path d="M478.58,235.87c-.63-2.08-8.49-6.36-7.3-7.51,1.55-1.51,8,4.84,8.59,5.33s1.3-.35.75-.77c-.8-.6-9-7.13-7.46-8.62.84-.83,2.16.85,2.16.85s7.2,6.69,7.89,6-3.4-4.81-4.88-6.08-1.47-2.48-.4-2.68c.74-.14,5.35,3.65,6.78,5s5.3,4.91,4.81,1.54c0-.05,0-.1,0-.16-.58-3.3.07-6,.79-6.7a1.16,1.16,0,0,1,1.87.92,1.17,1.17,0,0,1,0,.49c0,.07,0,.17,0,.25a16.32,16.32,0,0,0,.22,3.43,9.08,9.08,0,0,0,.94,2.92c.56,1,1.08,1.94,1.53,2.67,5.26,2.92,20.38,10.62,35.54,11.83,2.73.22,14.83-18.87,14.83-18.87l18,8.5a175.24,175.24,0,0,1-14.33,22.6C533.63,277.33,486.2,243,486.2,243h0l-.44-.22a109.09,109.09,0,0,1-10.48-5.92c-4.08-2.88-3.84-3.26-3.43-3.69C472.94,232,479.21,237.94,478.58,235.87Z" style="fill:#d89377"></path></g><g id="freepik--character-1--inject-4"><path d="M205.61,455.67l-.09-8.2-15.38.08,0,12,1,.06c4.24.21,21.59.78,24.42-.09C218.69,458.54,205.61,455.67,205.61,455.67Z" style="fill:#455a64"></path><path d="M189.94,459.2l.26,0,.76,0,2.8.11c2.36.07,5.62.13,9.22.12s6.87-.1,9.23-.19l2.79-.13.76-.05.26,0a1,1,0,0,0-.26,0l-.76,0-2.8.06c-2.36.06-5.62.13-9.22.14s-6.86,0-9.22-.06l-2.8-.05h-1Z" style="fill:#263238"></path><path d="M210.65,459.53a6.11,6.11,0,0,1,.51-1.34,6.45,6.45,0,0,1,1-1.07,2,2,0,0,0-1.11,1A2,2,0,0,0,210.65,459.53Z" style="fill:#263238"></path><path d="M206.1,457.25c.05,0,.26-.24.48-.59a1.69,1.69,0,0,0,.33-.69s-.26.23-.48.59S206.06,457.22,206.1,457.25Z" style="fill:#263238"></path><path d="M204.85,456.6s.28-.13.54-.37.45-.46.42-.5-.28.12-.54.36S204.82,456.56,204.85,456.6Z" style="fill:#263238"></path><path d="M204.06,455.15a2,2,0,0,0,.8.1,1.89,1.89,0,0,0,.81-.09,1.8,1.8,0,0,0-.81-.1A1.86,1.86,0,0,0,204.06,455.15Z" style="fill:#263238"></path><path d="M203.79,454.13a1.55,1.55,0,0,0,.89.25,1.69,1.69,0,0,0,.93-.12,3.83,3.83,0,0,0-.91-.06A4.46,4.46,0,0,0,203.79,454.13Z" style="fill:#263238"></path><path d="M206.62,455.9a2.46,2.46,0,0,0,1,0,5.51,5.51,0,0,0,1.06-.23,3,3,0,0,0,.6-.25.59.59,0,0,0,.24-.31.4.4,0,0,0-.15-.4,1.83,1.83,0,0,0-2.24.54,1.81,1.81,0,0,0-.32.67.48.48,0,0,0,0,.26,2.5,2.5,0,0,1,.44-.84,1.77,1.77,0,0,1,.84-.55,1.51,1.51,0,0,1,1.18.07c.16.12.1.3-.08.4a2.24,2.24,0,0,1-.55.24,5.36,5.36,0,0,1-1,.27C207,455.87,206.62,455.87,206.62,455.9Z" style="fill:#263238"></path><path d="M206.87,456a.91.91,0,0,0,.11-.68,1.5,1.5,0,0,0-.27-.72,1,1,0,0,0-.82-.5.4.4,0,0,0-.31.45,1.1,1.1,0,0,0,.17.44,3.13,3.13,0,0,0,.47.6,1.44,1.44,0,0,0,.57.4s-.2-.18-.47-.49a3.2,3.2,0,0,1-.42-.59c-.13-.21-.23-.58,0-.63s.5.22.65.42a1.55,1.55,0,0,1,.28.64A3.05,3.05,0,0,1,206.87,456Z" style="fill:#263238"></path><path d="M190.23,455s.44,0,1.14,0a4.82,4.82,0,0,1,4,3.19c.24.66.26,1.1.3,1.09a1,1,0,0,0,0-.31,3.4,3.4,0,0,0-.17-.82,4.72,4.72,0,0,0-1.56-2.29,4.82,4.82,0,0,0-2.59-1,3.6,3.6,0,0,0-.84,0A1.07,1.07,0,0,0,190.23,455Z" style="fill:#263238"></path><path d="M191.8,448.59a26,26,0,0,0-.12,3.16,23.35,23.35,0,0,0,.07,3.16,27.55,27.55,0,0,0,.11-3.16A26.85,26.85,0,0,0,191.8,448.59Z" style="fill:#263238"></path><path d="M197.66,457.9a9.49,9.49,0,0,0,2.24.21,8.6,8.6,0,0,0,2.25-.19c0-.06-1,0-2.25,0S197.66,457.84,197.66,457.9Z" style="fill:#263238"></path><path d="M194.64,457.9s.09.22.19.45.16.43.21.43.08-.25,0-.51S194.68,457.87,194.64,457.9Z" style="fill:#263238"></path><path d="M193.5,456.5s.07.19.23.35.31.26.35.23-.06-.2-.22-.36S193.54,456.46,193.5,456.5Z" style="fill:#263238"></path><path d="M191.88,455.86c0,.05.21.05.44.13s.39.19.43.16-.09-.25-.37-.34S191.86,455.81,191.88,455.86Z" style="fill:#263238"></path><path d="M190.72,455.56c0,.05.07.13.2.18s.24,0,.26,0-.07-.13-.2-.18S190.74,455.51,190.72,455.56Z" style="fill:#263238"></path><path d="M116.11,443.84l4.35-7-13-8.21L101,438.78l.77.56c3.46,2.46,17.76,12.29,20.61,13.08C125.58,453.3,116.11,443.84,116.11,443.84Z" style="fill:#455a64"></path><path d="M101,438.36l.21.17.62.44,2.29,1.6c2,1.33,4.67,3.14,7.71,5.07s5.83,3.62,7.87,4.81l2.42,1.4.67.37c.15.08.23.12.24.11l-.22-.15-.65-.39-2.39-1.45c-2-1.22-4.8-2.93-7.84-4.86s-5.77-3.71-7.73-5l-2.33-1.55-.64-.41Z" style="fill:#263238"></path><path d="M118.28,449.8a6.76,6.76,0,0,1,1.15-.85,6,6,0,0,1,1.38-.39,2.07,2.07,0,0,0-1.46.22A2,2,0,0,0,118.28,449.8Z" style="fill:#263238"></path><path d="M115.68,445.43c0,.05.35-.06.72-.24s.67-.36.65-.41a1.74,1.74,0,0,0-.73.24C116,445.2,115.66,445.38,115.68,445.43Z" style="fill:#263238"></path><path d="M115,444.21c0,.05.3,0,.65,0s.63-.15.62-.2-.3,0-.65,0S115,444.16,115,444.21Z" style="fill:#263238"></path><path d="M115.09,442.56s.25.27.62.52.7.4.73.35-.25-.27-.62-.51A1.94,1.94,0,0,0,115.09,442.56Z" style="fill:#263238"></path><path d="M115.41,441.55s.2.39.62.7a1.57,1.57,0,0,0,.84.39c0-.05-.33-.24-.73-.54A6,6,0,0,0,115.41,441.55Z" style="fill:#263238"></path><path d="M116.84,444.57a2.66,2.66,0,0,0,.83.53,5.7,5.7,0,0,0,1,.36,2.91,2.91,0,0,0,.64.12.54.54,0,0,0,.37-.13.39.39,0,0,0,.08-.41,1.81,1.81,0,0,0-2.17-.76,1.85,1.85,0,0,0-.63.39c-.12.12-.17.2-.16.21a2.74,2.74,0,0,1,.83-.47,1.72,1.72,0,0,1,1,0,1.53,1.53,0,0,1,1,.7c.07.18-.08.3-.29.3a3,3,0,0,1-.59-.1,7,7,0,0,1-1-.32C117.17,444.75,116.85,444.55,116.84,444.57Z" style="fill:#263238"></path><path d="M117,444.75s.26-.12.46-.52a1.52,1.52,0,0,0,.16-.75,1,1,0,0,0-.43-.86.39.39,0,0,0-.5.22,1,1,0,0,0-.09.46,2.89,2.89,0,0,0,.07.76,1.46,1.46,0,0,0,.27.64s-.08-.26-.14-.67a3.27,3.27,0,0,1,0-.72c0-.25.12-.62.35-.52s.3.45.33.7a1.82,1.82,0,0,1-.11.69A3.92,3.92,0,0,1,117,444.75Z" style="fill:#263238"></path><path d="M103.53,435s.39.2.93.64a4.94,4.94,0,0,1,1.55,2.19,4.89,4.89,0,0,1,.14,2.67c-.16.69-.37,1.07-.34,1.09a1.18,1.18,0,0,0,.16-.26,4,4,0,0,0,.31-.79,4.81,4.81,0,0,0-.09-2.77,4.86,4.86,0,0,0-1.64-2.24,4.18,4.18,0,0,0-.73-.43A.91.91,0,0,0,103.53,435Z" style="fill:#263238"></path><path d="M108.3,430.43a25.67,25.67,0,0,0-1.81,2.59,24.59,24.59,0,0,0-1.64,2.7,26.14,26.14,0,0,0,1.8-2.6A30.24,30.24,0,0,0,108.3,430.43Z" style="fill:#263238"></path><path d="M108.22,441.42a8.25,8.25,0,0,0,1.77,1.39,8.44,8.44,0,0,0,2,1.05c0-.05-.86-.53-1.9-1.21S108.25,441.38,108.22,441.42Z" style="fill:#263238"></path><path d="M105.67,439.81s0,.22-.08.47-.1.45,0,.48.2-.17.24-.45S105.72,439.79,105.67,439.81Z" style="fill:#263238"></path><path d="M105.47,438s0,.19,0,.42.12.39.17.38.06-.2,0-.42S105.52,438,105.47,438Z" style="fill:#263238"></path><path d="M104.44,436.59c0,.05.16.16.31.35s.22.37.27.37.06-.26-.13-.49S104.46,436.54,104.44,436.59Z" style="fill:#263238"></path><path d="M103.63,435.72s0,.14.07.25.18.17.22.14,0-.14-.07-.25S103.67,435.68,103.63,435.72Z" style="fill:#263238"></path><path d="M175.65,284.69s13,86.65,11.14,90.83S124,446.67,124,446.67L101.57,431.8s53.18-67,52.78-68.57-20.15-85.51-20.15-85.51Z" style="fill:#007355"></path><path d="M126.79,276.54l-.79,3.21a37.9,37.9,0,0,0,4,27.93L165.34,369a48.84,48.84,0,0,1,5.42,13.94l16,70.8h24.63c0,1.47-6.37-58.33-9.57-78.19-2.4-15-22.45-61.47-32.16-83.43l6-7.4L165.2,283Z" style="fill:#007355"></path><path d="M170.4,291.93a4.67,4.67,0,0,1,.54,1c.32.64.76,1.58,1.29,2.75,1.06,2.33,2.45,5.59,3.87,9.23s2.59,7,3.39,9.42c.39,1.22.7,2.21.9,2.9a4.91,4.91,0,0,1,.26,1.09,4.15,4.15,0,0,1-.45-1c-.29-.78-.65-1.73-1.06-2.85-.88-2.4-2.11-5.71-3.53-9.35s-2.75-6.91-3.72-9.28c-.44-1.1-.82-2-1.14-2.81A4,4,0,0,1,170.4,291.93Z" style="fill:#263238"></path><path d="M173.3,394.7a3.85,3.85,0,0,1-.16-.69c-.09-.51-.21-1.17-.35-2-.08-.44-.16-.92-.25-1.44s-.24-1.09-.38-1.7c-.27-1.21-.55-2.6-1-4.11-.21-.76-.42-1.55-.65-2.37l-.81-2.55c-.52-1.76-1.25-3.59-2-5.54-1.52-3.86-3.37-8-5.52-12.3a231.71,231.71,0,0,0-12.43-21.13c-1.71-2.58-3.1-4.69-4.11-6.2-.46-.7-.82-1.26-1.11-1.69a4.16,4.16,0,0,1-.36-.61,3.28,3.28,0,0,1,.45.55l1.19,1.63c1,1.43,2.49,3.51,4.25,6.12a206.6,206.6,0,0,1,12.58,21.09c2.16,4.29,4,8.48,5.51,12.36.69,2,1.41,3.81,1.92,5.59l.78,2.56c.21.84.42,1.63.62,2.4.42,1.52.67,2.92.92,4.14q.18.92.33,1.71c.08.53.14,1,.21,1.45.1.83.19,1.5.26,2A3.42,3.42,0,0,1,173.3,394.7Z" style="fill:#263238"></path><path d="M127.3,443.09a4.64,4.64,0,0,1-1-.34,25.37,25.37,0,0,1-2.67-1.23,63.27,63.27,0,0,1-8.14-5.29c-3-2.26-5.76-4.32-7.82-5.68s-3.39-2.12-3.35-2.2a4.54,4.54,0,0,1,1,.44c.63.3,1.5.8,2.56,1.45,2.13,1.29,4.91,3.31,7.93,5.57a79,79,0,0,0,8,5.38C125.92,442.41,127.33,443,127.3,443.09Z" style="fill:#263238"></path><path d="M211.3,450a4.3,4.3,0,0,1-1,0l-2.79,0-9.17-.07-9.18.05-2.79,0a4.56,4.56,0,0,1-1-.06,3.58,3.58,0,0,1,1-.15c.66-.05,1.61-.12,2.79-.17,2.34-.12,5.6-.22,9.19-.21s6.84.1,9.19.23c1.17.06,2.12.12,2.78.18A3.58,3.58,0,0,1,211.3,450Z" style="fill:#263238"></path><path d="M143,188.09a11.18,11.18,0,0,1-6.34-1,5.94,5.94,0,0,1-3.33-5.18c0-1.27.59-2.52.38-3.77s-1.14-2.25-1.74-3.37a7,7,0,0,1,1.88-8.58c1.31-1,3-1.52,4.08-2.75,1.3-1.45,1.51-3.55,2.3-5.33a8.63,8.63,0,0,1,6.42-4.92c1.54-.24,3.14-.07,4.61-.56a16.17,16.17,0,0,0,3.41-2,15.81,15.81,0,0,1,11.76-2.21,9.48,9.48,0,0,1,4.76,2.35c1.43,1.42,3.27,3,3.79,4.9.61,2.3-.14,5.18-.75,7.47s-2.46,4.39-4.82,4.67" style="fill:#263238"></path><path d="M142.51,205.78l18.78.26c.32-2.16,1-10.6,1-10.6s7.87-.47,8.69-8.22,1.16-25.67,1.16-25.67h0a27.05,27.05,0,0,0-27.4.85l-1.23.78Z" style="fill:#ffbe9d"></path><path d="M162.87,182.17a5.56,5.56,0,0,1,1.77-.2c.28,0,.5-.05.54-.2a1.58,1.58,0,0,0-.13-.81l-.64-2.25a30.74,30.74,0,0,1-1.29-5.88,30.4,30.4,0,0,1,1.88,5.72c.21.78.4,1.52.59,2.26a1.71,1.71,0,0,1,0,1.17.73.73,0,0,1-.53.4,1.61,1.61,0,0,1-.48,0A5,5,0,0,1,162.87,182.17Z" style="fill:#263238"></path><path d="M162.27,195.33a18.1,18.1,0,0,1-9.84-3.82s1.87,5.8,9.67,5.83Z" style="fill:#eb996e"></path><path d="M143.57,171.33c-.16-.07-5.31-.91-5,5.22s6.38,3.81,6.39,3.63S143.57,171.33,143.57,171.33Z" style="fill:#ffbe9d"></path><path d="M143,178.12s-.11.08-.28.17a1.1,1.1,0,0,1-.8.06,2.67,2.67,0,0,1-1.34-2.31,3.54,3.54,0,0,1,.23-1.55,1.24,1.24,0,0,1,.76-.85.56.56,0,0,1,.65.26c.09.17,0,.29.09.3s.12-.11.06-.36a.67.67,0,0,0-.26-.37.74.74,0,0,0-.59-.13,1.47,1.47,0,0,0-1.07,1,3.61,3.61,0,0,0-.29,1.73,2.75,2.75,0,0,0,1.68,2.57,1.13,1.13,0,0,0,1-.21C143,178.27,143,178.13,143,178.12Z" style="fill:#eb996e"></path><path d="M155.91,171.18c-.09-.11.06-.4.46-.71a3.51,3.51,0,0,1,1.81-.64,3.44,3.44,0,0,1,1.88.39c.44.25.62.52.55.63-.15.26-1.14-.08-2.36,0S156.09,171.41,155.91,171.18Z" style="fill:#263238"></path><path d="M166.78,171.24c-.06-.27.78-.67,1.88-.66s1.94.4,1.89.68-.89.36-1.89.36S166.83,171.53,166.78,171.24Z" style="fill:#263238"></path><path d="M141.62,165.06q.45,2.82.88,5.65a4.66,4.66,0,0,0,.89,2.49c1,1.11,2.82,1,4.1.27,1.87-1.09,2.9-3.18,3.69-5.2s1.49-4.15,3-5.69a7.46,7.46,0,0,0,8.61,1.58c1.25-.62,2.29-1.6,3.49-2.32a4.59,4.59,0,0,1,4-.64c.71.3,1.35.88,2.11.84a1.7,1.7,0,0,0,1.38-.94,3,3,0,0,0,.25-1.71c-.25-2.16-2-3.88-4-4.84-2.79-1.37-6-1.56-9.12-1.57a34.61,34.61,0,0,0-8.8.87,15.29,15.29,0,0,0-7.58,4.35,9.85,9.85,0,0,0-2.52,8.19" style="fill:#263238"></path><path d="M166.07,158.86a9.23,9.23,0,0,0,3,5.12,4,4,0,0,0,2.59,1.16,3.21,3.21,0,0,0,2.83-3.21,6.15,6.15,0,0,0-1.91-4.19,5.89,5.89,0,0,0-3.91-2.06,3,3,0,0,0-3.12,2.62" style="fill:#263238"></path><path d="M157,174.08a1,1,0,0,0,1,1,.94.94,0,0,0,1-.91,1,1,0,0,0-1-1A.93.93,0,0,0,157,174.08Z" style="fill:#263238"></path><path d="M155.42,173c.13.13.86-.44,1.92-.46s1.84.5,1.95.36-.07-.28-.42-.52a2.69,2.69,0,0,0-3.08.07C155.47,172.72,155.36,173,155.42,173Z" style="fill:#263238"></path><path d="M167.86,174.05a1,1,0,0,0,1,1,.93.93,0,0,0,1-.91,1,1,0,0,0-1-1A1,1,0,0,0,167.86,174.05Z" style="fill:#263238"></path><path d="M166.46,173.17c.12.13.86-.44,1.92-.46s1.84.5,2,.37-.07-.29-.42-.53a2.68,2.68,0,0,0-3.09.08C166.51,172.88,166.4,173.12,166.46,173.17Z" style="fill:#263238"></path><path d="M162.62,185.31c0,.07-.26.19-.74.16a2.51,2.51,0,0,1-1.64-.78,2.56,2.56,0,0,1-.71-1.68c0-.47.13-.74.19-.73s0,1.15.89,2.05S162.63,185.17,162.62,185.31Z" style="fill:#263238"></path><path d="M166.16,225.37l15.61-5.22s10.86,25.71,13.66,26c15.49,1.41,32.07-3.72,37.88-5.75.59-.67,1.27-1.46,2-2.44a9.36,9.36,0,0,0,1.46-2.78,14.64,14.64,0,0,0,.83-3.83,1.22,1.22,0,0,1,2.09-1c.67.87.84,4.19-.69,7.76s3.88.73,5.87-.27,8.3-3.8,9.09-3.43c1.16.54.8,1.88-1.21,2.83s-7.85,4.24-7.27,5.26,10.64-4.21,10.64-4.21,2-1.47,2.68-.31c1.28,2.1-9.84,6.87-10.9,7.3-.75.3-.16,1.44.62,1.07s9.92-5.45,11.24-3.32c1,1.63-9.1,4-10.4,6.11s7.48-2.58,8.39-1c.33.6.5,1.09-4.94,3a116.19,116.19,0,0,1-12.12,3.1l0,0s-56,25.06-66,.88C164.42,230.6,166.16,225.37,166.16,225.37Z" style="fill:#eb996e"></path><path d="M187,228.62c-6.25-14.63-14.43-20.36-18.75-22.48a12.51,12.51,0,0,0-4.84-1.24h0l-.52-2.52-20.7-1.86-.51,3.2-3-.17s-17.84,1.79-17.88,22.46c0,9.67,5.21,19.08,7.05,23.69,1.15,9.64-3,27.13-2.87,31.39l50.73,3.6L177.79,253l-.47-3,16.7-5.12Zm-44.81-24.87Z" style="fill:#ebebeb"></path><path d="M299.32,158.66a58.95,58.95,0,0,0-104.48,30.75h0a58.9,58.9,0,0,0,19.9,50.66l-51.59,60.55,7.4,6.31,52-61.06a58.58,58.58,0,0,0,24.6,8.41,59.56,59.56,0,0,0,6.38.34,59,59,0,0,0,45.76-96Zm3.06,42.24a49.2,49.2,0,1,1-10.63-36.13A48.89,48.89,0,0,1,302.38,200.9Z" style="fill:#263238"></path><path d="M295.17,154.51a58.94,58.94,0,0,0-104.48,30.75h0a58.88,58.88,0,0,0,19.9,50.66l-52.22,61,7.91,6.33,52.15-61.57a58.71,58.71,0,0,0,24.6,8.41,62.13,62.13,0,0,0,6.38.34,59,59,0,0,0,45.76-96Zm3.06,42.24a49.22,49.22,0,1,1-10.63-36.13A48.92,48.92,0,0,1,298.23,196.75Z" style="fill:#455a64"></path><path d="M222.55,223.45a2.26,2.26,0,0,1-.39-.43c-.24-.3-.61-.73-1-1.32a44,44,0,0,1-3.29-5.18,48.72,48.72,0,0,1-3.33-39.26,43.66,43.66,0,0,1,2.36-5.65c.31-.66.6-1.14.79-1.47a1.86,1.86,0,0,1,.31-.49,3.36,3.36,0,0,1-.22.54c-.15.35-.41.84-.7,1.5a54.21,54.21,0,0,0-2.2,5.69,50.1,50.1,0,0,0,3.32,39,52.28,52.28,0,0,0,3.12,5.23c.39.61.73,1,.94,1.37A2.74,2.74,0,0,1,222.55,223.45Z" style="fill:#263238"></path><path d="M225,162.93c.09.12-.51.68-1.11,1.47s-1,1.5-1.14,1.45.06-.92.72-1.77S224.93,162.81,225,162.93Z" style="fill:#263238"></path><path d="M173.16,217.57a8,8,0,0,1,.36,1.38c.2.89.46,2.19.77,3.81.6,3.22,1.33,7.7,2,12.67s1,9.49,1.19,12.76c.1,1.64.16,3,.18,3.88a7.21,7.21,0,0,1,0,1.43,7.92,7.92,0,0,1-.18-1.41c-.09-1-.21-2.31-.35-3.87-.29-3.26-.73-7.77-1.34-12.73s-1.29-9.43-1.8-12.67c-.24-1.54-.44-2.83-.6-3.84A6.67,6.67,0,0,1,173.16,217.57Z" style="fill:#263238"></path><path d="M200.75,266.69s-56,25.11-66,.93c-10.26-24.63-8.52-29.86-8.52-29.86l15.61-5.22s10.87,25.71,13.66,26c15.5,1.42,32.08-3.72,37.89-5.75.59-.66,1.26-1.46,2-2.43s1.32-2,2-2.87c1.48-1.85,2.65-2.16,3.3-2.89,1.54-1.75,3-.47,2.28.47s-2.33,1.9-3.86,5.48,3.92,1.81,6.08,1.25c2.38-.63,6.85-2.37,6.85-2.37.11,1.05-1.08,3.16-3.09,4.11a31.77,31.77,0,0,1-3.35,1.4s4.13-.51,4.24.44-1.22,7.91-5.62,10Z" style="fill:#ffbe9d"></path><path d="M138.17,210.14l10.06,30.37-22,8.7s-11.48-29.83,3.06-37.13Z" style="fill:#ebebeb"></path><path d="M149.69,239.33s-.12-.08-.3-.28a6.72,6.72,0,0,1-.66-1,34.71,34.71,0,0,1-1.59-4c-1.23-3.4-2.9-8.12-4.71-13.33l-2.53-7.36c-.78-2.26-1.39-4.36-2.54-5.71a4.66,4.66,0,0,0-3.6-1.79,4.48,4.48,0,0,0-1.49.36s.1-.11.34-.24a2.84,2.84,0,0,1,1.14-.32,4.73,4.73,0,0,1,3.89,1.75c1.26,1.41,1.91,3.56,2.71,5.79s1.66,4.74,2.57,7.35c1.82,5.21,3.43,10,4.57,13.38.58,1.72,1,3.13,1.42,4S149.73,239.3,149.69,239.33Z" style="fill:#263238"></path><path d="M149.22,239.9a3.77,3.77,0,0,1-.83.52c-.55.31-1.36.73-2.37,1.23-2,1-4.85,2.3-8,3.59s-6.14,2.32-8.29,3c-1.07.34-2,.6-2.56.76a3.71,3.71,0,0,1-1,.21,26.63,26.63,0,0,1,3.4-1.31c2.12-.77,5-1.85,8.21-3.13s6-2.53,8.08-3.45A29.45,29.45,0,0,1,149.22,239.9Z" style="fill:#263238"></path><path d="M129.83,248.09a11.48,11.48,0,0,1-1.78-4.52,5.84,5.84,0,0,1,1.13,2.17A5.61,5.61,0,0,1,129.83,248.09Z" style="fill:#263238"></path><path d="M134.48,246.3c-.13.07-.73-.81-1.17-2a4.28,4.28,0,0,1-.4-2.32,7.36,7.36,0,0,1,.89,2.15A7.68,7.68,0,0,1,134.48,246.3Z" style="fill:#263238"></path><path d="M139.35,244.19a4.35,4.35,0,0,1-1.25-2.09,4.4,4.4,0,0,1-.42-2.41,8.67,8.67,0,0,1,.91,2.22A8.86,8.86,0,0,1,139.35,244.19Z" style="fill:#263238"></path><path d="M144.56,242.09a6.49,6.49,0,0,1-1-2.32,6.4,6.4,0,0,1-.51-2.47,6,6,0,0,1,1,2.31A6.1,6.1,0,0,1,144.56,242.09Z" style="fill:#263238"></path><path d="M194.42,244.56a75.53,75.53,0,0,1-8.47,3,78.63,78.63,0,0,1-8.63,2.48,77.62,77.62,0,0,1,8.47-3A77.13,77.13,0,0,1,194.42,244.56Z" style="fill:#263238"></path><path d="M181,248.09c-.14.06-.58-.68-1-1.64s-.63-1.79-.5-1.85.57.68,1,1.65S181.15,248,181,248.09Z" style="fill:#263238"></path><path d="M185.32,247.12c-.13,0-.6-.82-.92-2a4,4,0,0,1-.22-2.18c.15,0,.41.91.72,2A5.76,5.76,0,0,1,185.32,247.12Z" style="fill:#263238"></path><path d="M190,245.64a9.31,9.31,0,0,1-.87-4.28,4.9,4.9,0,0,1,.69,2.09A4.82,4.82,0,0,1,190,245.64Z" style="fill:#263238"></path><path d="M144.22,203.44c-.15,0-.22-.56-.18-1.24s.21-1.21.35-1.2.22.57.17,1.24S144.36,203.45,144.22,203.44Z" style="fill:#263238"></path><path d="M148.78,203.71c-.15,0-.28-.54-.31-1.21s.07-1.23.21-1.23.28.53.31,1.21S148.92,203.7,148.78,203.71Z" style="fill:#263238"></path><path d="M152.3,204.32c-.14,0-.25-.57-.25-1.27s.13-1.26.27-1.26.26.57.25,1.26S152.45,204.32,152.3,204.32Z" style="fill:#263238"></path><path d="M157.06,204.84c-.13,0-.42-.61-.44-1.47s.22-1.52.35-1.49.14.68.17,1.47S157.21,204.8,157.06,204.84Z" style="fill:#263238"></path><path d="M161,204.84c-.15,0-.34-.63-.44-1.45s-.06-1.5.08-1.51.34.63.44,1.45S161.13,204.82,161,204.84Z" style="fill:#263238"></path></g></svg>